<svg xmlns="http://www.w3.org/2000/svg" width="1024" height="1024" viewBox="0 0 1024 1024">
  <g fill="none" fill-rule="evenodd">
    <path fill="#4CAF50" fill-rule="nonzero" d="M423.316924,988 C410.397472,987.982595 397.722303,984.47852 386.629031,977.857562 L269.758471,906.315777 C252.302331,896.254937 260.884823,892.635946 266.575604,890.567321 C289.879133,882.228866 296.822768,878.091616 321.60193,863.474509 C324.262039,862.003536 327.661068,862.539437 330.325589,864.184634 L417.915094,916.019348 C421.17075,917.893902 425.760872,917.893902 428.791544,916.019348 L771.094242,712.583973 C774.347693,710.649875 776.421078,706.748598 776.421078,702.789982 L776.421078,290.818241 C776.421078,286.73833 774.347693,282.896598 771.019247,280.832384 L428.866539,72.0468125 C425.606471,70.0752232 421.32074,70.0752232 418.062878,72.0468125 L76.1329479,280.905161 C72.7273021,282.896598 70.5833333,286.855214 70.5833333,290.818241 L70.5833333,702.789982 C70.5833333,706.788295 72.7273021,710.537402 76.0557474,712.469295 L330.325589,863.474509 C330.325589,866.945741 284.874302,876.336692 269.758471,906.315777 L36.762888,768.811759 C14.0527005,755.244402 0,729.896027 0,702.750286 L0,284.912295 C0,257.751116 14.0527005,232.46008 36.7584766,218.934625 L386.774609,9.725625 C408.891456,-3.241875 438.331323,-3.241875 460.295974,9.725625 L810.234906,218.934625 C832.949505,232.495366 847,257.804045 847,284.912295 L847,702.750286 C847,729.896027 832.949505,755.127518 810.234906,768.807348 L460.295974,977.817866 C449.161609,984.465381 436.433068,987.970513 423.464708,987.960304 L423.316924,988 Z" transform="translate(88 18)"/>
    <g fill="#33365B" fill-rule="nonzero" transform="translate(269 261)">
      <path d="M106.081305 494.640832C105.786375 496.475143 106.302051 498.347821 107.494441 499.763748 108.68683 501.179676 110.434703 501.996346 112.276665 501.996346L225 502 225 293 138.512854 293 106.081305 494.640832zM225 0L191.060859 0C187.970031 0 185.335287 2.24979054 184.839228 5.31519857L154 196 225 196 225 0zM348.487146 293L262 293 262 502 374.723335 501.996346C376.565297 501.996346 378.31136 501.181503 379.505559 499.763748 380.697949 498.347821 381.213625 496.475143 380.918695 494.640832L348.487146 293zM302.1618 5.31519857C301.667545 2.24979054 299.030916 0 295.94001 0L262 0 262 196 333 196 302.1618 5.31519857z"/>
      <path d="M480.671178,222 L6.32882167,222 C2.83328338,222 0,224.814426 0,228.286698 L0,258.718014 C0,262.190286 2.83328338,265.006524 6.32882167,265.006524 L62.279327,265.006524 L62.279327,326.867706 C62.279327,329.702066 64.5926582,332 67.4460099,332 L91.7706509,332 C94.6240026,332 96.9373338,329.702066 96.9373338,326.867706 L96.9373338,265.006524 L390.062666,265.006524 L390.062666,326.867706 C390.062666,329.702066 392.375997,332 395.229349,332 L419.55399,332 C422.409166,332 424.720673,329.702066 424.720673,326.867706 L424.720673,265.006524 L480.671178,265.006524 C484.166717,265.006524 487,262.190286 487,258.718014 L487,228.286698 C487,224.814426 484.166717,222 480.671178,222 Z"/>
    </g>
  </g>
</svg>
